<?xml version="1.0" encoding="utf-8"?>
<!-- Generator: Adobe Illustrator 23.0.3, SVG Export Plug-In . SVG Version: 6.00 Build 0)  -->
<svg version="1.1" id="Layer_1" xmlns="http://www.w3.org/2000/svg" xmlns:xlink="http://www.w3.org/1999/xlink" x="0px" y="0px"
	 viewBox="0 0 85 23" style="enable-background:new 0 0 85 23;" xml:space="preserve">
<style type="text/css">
	.st0{fill:#FFFFFF;}
</style>
<g>
	<polygon class="st0" points="8.9,14 12,6.1 13.9,11.2 19.2,13.1 14.2,0 9.7,0 0.9,23 5.4,23 7.3,18.3 16.7,18.3 18.5,23 23,23 
		19.6,14 	"/>
	<polygon class="st0" points="47.2,0 40.9,17.5 34.5,0.2 28.2,17.5 21.8,0 17.5,0 26,23 30.4,23 34.5,11.7 38.7,23 43.1,23 51.5,0 	
		"/>
	<path class="st0" d="M76.4,11.1L83.7,0h-4.9l-4.9,7.4L69.1,0h-4.9l7.3,11.1l-4.3,6.6l-0.6,0.9L66,17.3L64.7,14H54.1l3.1-8L59,11
		l5.2,1.9L59.3,0h-4.4L46,23h4.5l1.9-4.7h9.4l1,2.6l0.2,0.6c0.2,0.4,0.5,0.8,0.9,1.1c0.5,0.3,1,0.5,1.6,0.5h2.6h0.4l5.3-8.1l5.3,8.1
		h4.9L76.4,11.1z"/>
</g>
</svg>
